<svg xmlns="http://www.w3.org/2000/svg" viewBox="0 0 841.9 595.3"><g transform="translate(0.000000,1636.000000) scale(0.100000,-0.100000)"
fill="#000000" stroke="none">
<path d="M9870 12225 c-328 -41 -621 -125 -901 -259 -635 -303 -1125 -821
-1380 -1458 -58 -146 -76 -201 -118 -363 -89 -339 -113 -724 -67 -1042 28
-194 39 -194 47 -3 7 155 25 293 49 385 6 22 15 56 20 75 5 19 13 51 18 70 18
66 86 225 150 350 64 126 227 380 279 435 15 17 48 57 73 89 56 75 242 263
336 342 193 160 187 156 345 261 150 101 253 159 414 237 234 113 336 154 510
206 341 101 507 132 867 161 124 10 191 10 320 0 176 -13 300 -27 363 -41 22
-5 69 -14 105 -20 215 -39 659 -213 668 -262 9 -47 -121 -248 -225 -349 -37
-36 -102 -90 -143 -119 -41 -30 -77 -57 -80 -60 -23 -25 -187 -120 -335 -195
-316 -159 -392 -189 -1030 -406 -384 -131 -410 -140 -500 -174 -134 -51 -396
-155 -439 -174 -23 -11 -65 -29 -92 -39 -129 -51 -532 -248 -634 -309 -36 -22
-85 -50 -110 -64 -25 -13 -67 -40 -95 -58 -27 -19 -79 -55 -115 -80 -202 -138
-416 -346 -522 -506 -60 -91 -128 -221 -128 -245 0 -6 -4 -18 -9 -28 -9 -16
-13 -33 -42 -147 -22 -84 -16 -276 11 -375 71 -261 272 -439 600 -530 25 -6
55 -16 68 -21 13 -5 32 -9 43 -9 12 0 48 -26 82 -58 280 -265 632 -471 1022
-601 156 -52 259 -77 428 -106 380 -64 837 -36 1197 71 667 200 1263 655 1601
1225 113 190 247 481 278 605 6 22 25 96 44 165 33 118 77 381 77 453 0 38 14
52 85 86 82 40 255 149 327 208 267 215 414 540 395 871 -8 132 -34 228 -97
356 -79 160 -185 287 -342 406 -42 33 -79 59 -82 59 -3 0 -24 13 -48 29 -59
39 -176 96 -183 89 -4 -3 9 -35 27 -70 63 -116 99 -237 123 -407 29 -200 13
-361 -50 -509 -48 -114 -102 -191 -214 -302 -177 -176 -402 -301 -736 -410
-254 -82 -508 -140 -795 -181 -41 -6 -104 -15 -140 -20 -36 -5 -99 -14 -140
-19 -41 -5 -133 -19 -205 -30 -71 -11 -182 -27 -245 -36 -868 -119 -1529 -392
-1835 -758 -102 -122 -145 -192 -186 -301 -31 -82 -19 -87 35 -12 59 83 171
188 273 256 74 50 270 150 323 166 14 4 39 13 55 20 28 12 130 45 185 60 14 3
41 11 60 16 167 48 487 103 749 130 201 20 262 24 941 59 217 11 436 24 485
30 50 5 135 14 190 19 183 19 437 57 550 82 28 6 66 14 85 19 19 4 76 21 127
37 51 17 94 28 97 26 8 -8 -18 -72 -80 -198 -128 -261 -282 -483 -481 -695
-187 -198 -295 -292 -528 -458 -259 -185 -608 -362 -900 -457 -286 -93 -420
-123 -735 -167 -60 -8 -202 -13 -390 -13 -264 0 -309 3 -425 23 -251 45 -309
59 -478 116 -156 53 -276 115 -225 116 22 1 -35 29 -59 30 -59 1 -158 55 -318
176 -109 82 -152 125 -177 179 -20 44 -23 65 -22 170 0 112 2 126 33 203 18
46 55 116 81 155 62 93 219 248 340 337 132 97 350 219 510 286 74 31 149 63
165 70 38 16 345 124 450 157 144 46 358 106 657 182 1079 274 1419 382 1813
576 155 76 175 87 260 138 67 41 216 154 277 210 346 317 470 768 303 1101
-134 266 -412 475 -798 600 -138 44 -337 90 -337 77 0 -3 36 -28 79 -57 183
-120 271 -268 271 -457 0 -46 -4 -83 -8 -83 -5 0 -50 33 -99 73 -213 170 -490
333 -708 417 -11 4 -31 12 -45 18 -219 90 -455 147 -760 182 -115 13 -402 10
-530 -5z"/>
</g></svg>