<?xml version="1.0" encoding="UTF-8"?>
<svg xmlns="http://www.w3.org/2000/svg" xmlns:xlink="http://www.w3.org/1999/xlink" width="40px" height="40px" viewBox="10 0 40 40" version="1.1">
<g id="surface1">
<defs>
    <linearGradient id="grad1" x1="0%" y1="0%" x2="100%" y2="100%">
      <stop offset="0%" style="stop-color:#ff007a;stop-opacity:1" />
      <stop offset="100%" style="stop-color:#9b4dff;stop-opacity:1" />
    </linearGradient>
  </defs>
<path style="stroke:none;fill-rule:nonzero;fill:url(#grad1);fill-opacity:1;" d="M 29.878906 12.636719 C 28.886719 12.761719 28 13.019531 27.152344 13.429688 C 25.230469 14.355469 23.746094 15.9375 22.972656 17.886719 C 22.800781 18.332031 22.746094 18.5 22.617188 18.996094 C 22.347656 20.03125 22.273438 21.207031 22.414062 22.179688 C 22.5 22.773438 22.53125 22.773438 22.558594 22.1875 C 22.578125 21.714844 22.632812 21.292969 22.707031 21.011719 C 22.722656 20.945312 22.75 20.839844 22.765625 20.78125 C 22.78125 20.722656 22.804688 20.625 22.820312 20.570312 C 22.875 20.367188 23.082031 19.878906 23.273438 19.5 C 23.46875 19.113281 23.960938 18.335938 24.117188 18.167969 C 24.164062 18.117188 24.265625 17.996094 24.339844 17.898438 C 24.507812 17.667969 25.074219 17.09375 25.355469 16.851562 C 25.941406 16.363281 25.921875 16.375 26.402344 16.054688 C 26.855469 15.746094 27.167969 15.570312 27.65625 15.328125 C 28.363281 14.984375 28.671875 14.859375 29.199219 14.699219 C 30.230469 14.390625 30.734375 14.296875 31.824219 14.207031 C 32.199219 14.179688 32.402344 14.179688 32.792969 14.207031 C 33.324219 14.25 33.699219 14.289062 33.890625 14.332031 C 33.957031 14.347656 34.101562 14.375 34.210938 14.394531 C 34.859375 14.515625 36.203125 15.046875 36.230469 15.195312 C 36.257812 15.339844 35.863281 15.953125 35.550781 16.261719 C 35.4375 16.371094 35.242188 16.539062 35.117188 16.625 C 34.992188 16.71875 34.882812 16.800781 34.875 16.808594 C 34.804688 16.886719 34.308594 17.175781 33.859375 17.40625 C 32.902344 17.890625 32.675781 17.984375 30.742188 18.644531 C 29.582031 19.046875 29.5 19.074219 29.230469 19.179688 C 28.824219 19.332031 28.03125 19.652344 27.898438 19.710938 C 27.832031 19.742188 27.703125 19.796875 27.621094 19.828125 C 27.230469 19.984375 26.011719 20.585938 25.703125 20.773438 C 25.59375 20.839844 25.445312 20.925781 25.371094 20.96875 C 25.292969 21.007812 25.167969 21.089844 25.082031 21.144531 C 25 21.203125 24.84375 21.3125 24.734375 21.390625 C 24.121094 21.8125 23.472656 22.449219 23.152344 22.9375 C 22.972656 23.214844 22.765625 23.613281 22.765625 23.6875 C 22.765625 23.703125 22.753906 23.742188 22.738281 23.769531 C 22.710938 23.820312 22.699219 23.871094 22.609375 24.21875 C 22.542969 24.476562 22.5625 25.0625 22.644531 25.367188 C 22.859375 26.164062 23.46875 26.707031 24.460938 26.988281 C 24.535156 27.003906 24.628906 27.035156 24.667969 27.050781 C 24.707031 27.066406 24.765625 27.078125 24.796875 27.078125 C 24.832031 27.078125 24.941406 27.15625 25.046875 27.253906 C 25.894531 28.066406 26.957031 28.695312 28.140625 29.09375 C 28.613281 29.25 28.921875 29.328125 29.433594 29.417969 C 30.585938 29.613281 31.96875 29.527344 33.058594 29.199219 C 35.078125 28.589844 36.882812 27.199219 37.90625 25.457031 C 38.246094 24.875 38.652344 23.984375 38.746094 23.605469 C 38.765625 23.539062 38.824219 23.3125 38.878906 23.101562 C 38.980469 22.742188 39.113281 21.9375 39.113281 21.71875 C 39.113281 21.601562 39.15625 21.558594 39.371094 21.453125 C 39.617188 21.332031 40.144531 21 40.359375 20.820312 C 41.167969 20.160156 41.613281 19.167969 41.554688 18.15625 C 41.53125 17.753906 41.453125 17.460938 41.261719 17.070312 C 41.023438 16.578125 40.703125 16.191406 40.226562 15.828125 C 40.101562 15.726562 39.988281 15.648438 39.980469 15.648438 C 39.96875 15.648438 39.90625 15.609375 39.832031 15.558594 C 39.65625 15.441406 39.300781 15.265625 39.28125 15.289062 C 39.269531 15.296875 39.308594 15.394531 39.363281 15.5 C 39.550781 15.855469 39.660156 16.226562 39.734375 16.746094 C 39.820312 17.355469 39.773438 17.847656 39.582031 18.300781 C 39.4375 18.648438 39.273438 18.882812 38.933594 19.222656 C 38.398438 19.761719 37.71875 20.144531 36.707031 20.476562 C 35.9375 20.726562 35.167969 20.90625 34.300781 21.03125 C 34.175781 21.046875 33.984375 21.074219 33.875 21.089844 C 33.765625 21.105469 33.578125 21.132812 33.453125 21.148438 C 33.328125 21.164062 33.050781 21.207031 32.832031 21.242188 C 32.617188 21.273438 32.28125 21.324219 32.089844 21.351562 C 29.460938 21.714844 27.460938 22.550781 26.535156 23.667969 C 26.226562 24.039062 26.097656 24.253906 25.972656 24.585938 C 25.878906 24.839844 25.914062 24.851562 26.078125 24.625 C 26.257812 24.371094 26.59375 24.050781 26.902344 23.839844 C 27.128906 23.6875 27.722656 23.382812 27.882812 23.335938 C 27.925781 23.320312 28 23.292969 28.046875 23.273438 C 28.132812 23.238281 28.441406 23.136719 28.609375 23.089844 C 28.652344 23.082031 28.734375 23.054688 28.789062 23.039062 C 29.296875 22.894531 30.265625 22.726562 31.058594 22.644531 C 31.667969 22.582031 31.851562 22.570312 33.90625 22.464844 C 34.5625 22.429688 35.226562 22.390625 35.375 22.371094 C 35.527344 22.355469 35.785156 22.328125 35.949219 22.3125 C 36.503906 22.253906 37.273438 22.140625 37.613281 22.0625 C 37.699219 22.042969 37.816406 22.019531 37.871094 22.003906 C 37.929688 21.992188 38.101562 21.941406 38.257812 21.890625 C 38.410156 21.839844 38.542969 21.804688 38.550781 21.8125 C 38.574219 21.835938 38.496094 22.03125 38.308594 22.417969 C 37.921875 23.214844 37.453125 23.894531 36.851562 24.542969 C 36.285156 25.148438 35.957031 25.433594 35.253906 25.941406 C 34.46875 26.507812 33.414062 27.046875 32.527344 27.339844 C 31.664062 27.621094 31.257812 27.714844 30.304688 27.847656 C 30.121094 27.871094 29.691406 27.886719 29.125 27.886719 C 28.324219 27.886719 28.1875 27.878906 27.835938 27.816406 C 27.078125 27.679688 26.902344 27.636719 26.390625 27.464844 C 25.917969 27.300781 25.554688 27.113281 25.707031 27.109375 C 25.773438 27.105469 25.601562 27.019531 25.53125 27.015625 C 25.351562 27.015625 25.050781 26.847656 24.566406 26.480469 C 24.238281 26.230469 24.105469 26.097656 24.03125 25.933594 C 23.96875 25.796875 23.960938 25.734375 23.964844 25.414062 C 23.964844 25.070312 23.96875 25.027344 24.0625 24.792969 C 24.117188 24.652344 24.230469 24.4375 24.308594 24.320312 C 24.496094 24.035156 24.972656 23.558594 25.339844 23.289062 C 25.738281 22.992188 26.398438 22.621094 26.882812 22.414062 C 27.105469 22.320312 27.332031 22.222656 27.382812 22.199219 C 27.496094 22.152344 28.425781 21.820312 28.746094 21.71875 C 29.179688 21.578125 29.828125 21.398438 30.734375 21.164062 C 34 20.328125 35.03125 19.996094 36.222656 19.402344 C 36.691406 19.171875 36.753906 19.136719 37.007812 18.980469 C 37.210938 18.855469 37.664062 18.511719 37.847656 18.339844 C 38.894531 17.371094 39.269531 15.992188 38.765625 14.976562 C 38.359375 14.164062 37.519531 13.523438 36.347656 13.140625 C 35.929688 13.007812 35.328125 12.867188 35.328125 12.90625 C 35.328125 12.914062 35.4375 12.992188 35.566406 13.082031 C 36.121094 13.449219 36.390625 13.898438 36.390625 14.476562 C 36.390625 14.617188 36.375 14.730469 36.363281 14.730469 C 36.347656 14.730469 36.214844 14.628906 36.066406 14.507812 C 35.421875 13.988281 34.582031 13.488281 33.921875 13.234375 C 33.886719 13.222656 33.828125 13.195312 33.785156 13.179688 C 33.121094 12.902344 32.40625 12.730469 31.484375 12.621094 C 31.136719 12.582031 30.265625 12.589844 29.878906 12.636719 Z M 29.878906 12.636719 "/>
</g>
</svg>
